<svg xmlns="http://www.w3.org/2000/svg" width="19.715" height="20" viewBox="0 0 19.715 20">
  <g id="Google" transform="translate(-1.1 -1)">
    <path id="Path_192546" data-name="Path 192546" d="M17.8,8.77a11.8,11.8,0,0,0-.173-2.031H8.139v3.85h5.432a4.629,4.629,0,0,1-2.01,3.039v2.5H14.8a9.742,9.742,0,0,0,3-7.357Z" transform="translate(3.017 2.46)" fill="#4285f4"/>
    <path id="Path_192547" data-name="Path 192547" d="M10.836,17.425A9.654,9.654,0,0,0,17.5,15.011l-3.24-2.5a6.115,6.115,0,0,1-9.067-3.17H1.85v2.576a10.063,10.063,0,0,0,8.986,5.507Z" transform="translate(0.321 3.575)" fill="#34a853"/>
    <path id="Path_192548" data-name="Path 192548" d="M5.51,11.263a5.957,5.957,0,0,1,0-3.829V4.859H2.17a9.957,9.957,0,0,0,0,8.98l3.34-2.576Z" transform="translate(0 1.654)" fill="#fbbc04"/>
    <path id="Path_192549" data-name="Path 192549" d="M10.836,4.957a5.482,5.482,0,0,1,3.857,1.5L17.565,3.6A9.7,9.7,0,0,0,10.836,1,10.06,10.06,0,0,0,1.85,6.513L5.187,9.086a6.012,6.012,0,0,1,5.646-4.129Z" transform="translate(0.321 0)" fill="#ea4335"/>
  </g>
</svg>
