<svg xmlns="http://www.w3.org/2000/svg" xmlns:xlink="http://www.w3.org/1999/xlink" width="24" height="24" viewBox="0 0 24 24">
  <defs>
    <linearGradient id="linear-gradient" x1="1.055" y1="1.103" x2="0.09" y2="0.101" gradientUnits="objectBoundingBox">
      <stop offset="0" stop-color="#01adf6"/>
      <stop offset="0.526" stop-color="#840264"/>
      <stop offset="1" stop-color="#ce1d2c"/>
    </linearGradient>
  </defs>
  <g id="Group_188343" data-name="Group 188343" transform="translate(-0.831)">
    <g id="Group_188340" data-name="Group 188340" transform="translate(0.831 0)">
      <g id="Group_188117" data-name="Group 188117" transform="translate(0 0)">
        <g id="Group_188116" data-name="Group 188116">
          <g id="Group_188115" data-name="Group 188115">
            <g id="Group_188341" data-name="Group 188341">
              <g id="Group_173979" data-name="Group 173979">
                <path id="Rectangle_68627" data-name="Rectangle 68627" d="M3.429,0H20.571A3.429,3.429,0,0,1,24,3.429V20.571A3.429,3.429,0,0,1,20.571,24H3.429A3.429,3.429,0,0,1,0,20.571V3.429A3.429,3.429,0,0,1,3.429,0Z" transform="translate(0 0)" fill="url(#linear-gradient)"/>
                <g id="Group_188112" data-name="Group 188112" transform="translate(3.086 4.457)">
                  <path id="Path_171721" data-name="Path 171721" d="M323.984,63.149v2.089h-1.425V59.422h2.988a2.452,2.452,0,0,1,1.053.2,1.63,1.63,0,0,1,.94,1.246,2.86,2.86,0,0,1,.052.527,1.746,1.746,0,0,1-.366,1.145,1.648,1.648,0,0,1-1.036.562,3.806,3.806,0,0,1-.608.046Zm0-1.263h1.5c.448,0,.675-.188.675-.57a.515.515,0,0,0-.423-.569,1.541,1.541,0,0,0-.252-.021h-1.5Z" transform="translate(-322.559 -50.135)" fill="#fff"/>
                  <path id="Path_171722" data-name="Path 171722" d="M347.15,59.417h3.142a1.892,1.892,0,0,1,1.321.427,1.64,1.64,0,0,1,.545,1.275,1.607,1.607,0,0,1-.612,1.292,1.917,1.917,0,0,1,.48.865q.046.171.13,1.954h-1.4l-.051-1.1q-.065-.343-.111-.552a.757.757,0,0,0-.612-.567,1.324,1.324,0,0,0-.281-.029H348.52V65.23h-1.371Zm1.371,2.333h1.509c.309,0,.5-.092.583-.277a.5.5,0,0,0,.052-.223c0-.355-.212-.53-.633-.53h-1.511Z" transform="translate(-341.395 -50.13)" fill="#fff"/>
                  <path id="Path_171723" data-name="Path 171723" d="M374.719,59.394a3.026,3.026,0,0,1,2.194.815,3.092,3.092,0,0,1,0,4.19,3.351,3.351,0,0,1-4.38,0,2.755,2.755,0,0,1-.82-2.091,2.8,2.8,0,0,1,.831-2.112,3,3,0,0,1,2.174-.8Zm0,1.292a1.563,1.563,0,0,0-1.368.659,1.615,1.615,0,0,0-.3.964,1.64,1.64,0,0,0,.311.98,1.426,1.426,0,0,0,.825.568,1.886,1.886,0,0,0,.53.074,1.569,1.569,0,0,0,1.371-.658,1.71,1.71,0,0,0-.011-1.948,1.471,1.471,0,0,0-.831-.573,2.1,2.1,0,0,0-.53-.069Z" transform="translate(-360.212 -50.111)" fill="#fff"/>
                  <g id="Group_188426" data-name="Group 188426" transform="translate(0.066 0)">
                    <path id="Path_171718" data-name="Path 171718" d="M352.953,24.928a1.925,1.925,0,0,0-3.5,0l-.884-.409a2.9,2.9,0,0,1,5.264,0Z" transform="translate(-342.486 -22.109)" fill="#fff"/>
                    <path id="Path_171719" data-name="Path 171719" d="M326.145,26.907a3.589,3.589,0,1,1,3.589-3.589h0a3.588,3.588,0,0,1-3.588,3.588Zm0-6.206a2.612,2.612,0,1,0,1.846.766,2.613,2.613,0,0,0-1.846-.766" transform="translate(-322.556 -19.729)" fill="#fff"/>
                    <path id="Path_171719-2" data-name="Path 171719" d="M326.145,26.907a3.589,3.589,0,1,1,3.589-3.589h0a3.588,3.588,0,0,1-3.588,3.588Zm0-6.206a2.612,2.612,0,1,0,1.846.766,2.613,2.613,0,0,0-1.846-.766" transform="translate(-312.214 -19.729)" fill="#fff"/>
                  </g>
                </g>
              </g>
            </g>
          </g>
        </g>
      </g>
    </g>
  </g>
</svg>
