<svg xmlns="http://www.w3.org/2000/svg" width="15.2" height="10.2" viewBox="0 0 15.2 10.2">
  <g id="Password_View" data-name="Password View" transform="translate(0.6 0.6)">
    <path id="Vector" d="M14.234,6.246a1.161,1.161,0,0,1,0,1.508C13.1,9.025,10.523,11.5,7.512,11.5S1.923,9.025.79,7.754a1.161,1.161,0,0,1,0-1.508C1.923,4.975,4.5,2.5,7.512,2.5S13.1,4.975,14.234,6.246Z" transform="translate(-0.512 -2.5)" fill="none" stroke="#c4c4c4" stroke-linecap="round" stroke-linejoin="round" stroke-width="1.2"/>
    <path id="Vector_2" d="M7,9A2,2,0,1,0,5,7,2,2,0,0,0,7,9Z" transform="translate(0 -2.5)" fill="none" stroke="#c4c4c4" stroke-linecap="round" stroke-linejoin="round" stroke-width="1.2"/>
  </g>
</svg>
