<svg xmlns="http://www.w3.org/2000/svg" width="15.696" height="14.696" viewBox="0 0 15.696 14.696">
  <g id="Password_View" data-name="Password View" transform="translate(0.848 0.848)">
    <g id="invisible-1--disable-eye-eyeball-hide-off-view" transform="translate(-0.5 -0.5)">
      <path id="Vector" d="M3.869,3.624A7.1,7.1,0,0,1,7.5,2.5c3.005,0,5.579,2.475,6.71,3.746a1.163,1.163,0,0,1,0,1.508,13.994,13.994,0,0,1-3.016,2.583m-2.078.932A5.966,5.966,0,0,1,7.5,11.5C4.495,11.5,1.921,9.025.79,7.754a1.162,1.162,0,0,1,0-1.508A15.468,15.468,0,0,1,2.267,4.792" fill="none" stroke="#c4c4c4" stroke-linecap="round" stroke-linejoin="round" stroke-width="1.2"/>
      <path id="Vector_2" d="M8.414,8.414A2,2,0,1,0,5.586,5.586" transform="translate(0.531)" fill="none" stroke="#c4c4c4" stroke-linecap="round" stroke-linejoin="round" stroke-width="1.2"/>
      <path id="Vector_3" d="M14.5,13.5.5.5" fill="none" stroke="#c4c4c4" stroke-linecap="round" stroke-linejoin="round" stroke-width="1.2"/>
    </g>
  </g>
</svg>
